<?xml version="1.0" encoding="utf-8"?>
<!-- Generator: Adobe Illustrator 24.1.2, SVG Export Plug-In . SVG Version: 6.00 Build 0)  -->
<svg version="1.1" id="Layer_1" xmlns="http://www.w3.org/2000/svg" xmlns:xlink="http://www.w3.org/1999/xlink" x="0px" y="0px"
	 viewBox="0 0 1920 1080" style="enable-background:new 0 0 1920 1080;" xml:space="preserve">
<style type="text/css">
	.st0{fill:none;stroke:#FFFFFF;stroke-linecap:round;stroke-linejoin:round;stroke-miterlimit:10;}
	.st1{fill:#C68D31;}
	.st2{fill:#FFFFFF;}
	.st3{fill:#664A9E;}
	.st4{fill:#37474F;}
	.st5{fill:#FFC829;}
	.st6{fill:#8D76B6;}
	.st7{fill:#503185;}
	.st8{opacity:0.1;fill:#010101;}
	.st9{opacity:0.2;fill:#010101;}
	.st10{fill:#263238;}
	.st11{fill:#F6B21A;}
	.st12{fill:#DCDBDB;}
	.st13{fill:#503284;}
	.st14{fill:#231F20;}
	.st15{fill:#FBB516;}
	.st16{clip-path:url(#SVGID_2_);}
	.st17{fill:none;stroke:#503284;stroke-width:32;stroke-miterlimit:10;}
</style>
<g>
	<line class="st0" x1="182.4" y1="686.8" x2="1745" y2="686.8"/>
	<ellipse class="st1" cx="963.7" cy="785.2" rx="222.5" ry="31.5"/>
	<g>
		<g>
			<path class="st2" d="M770.2,551.2l-13-51.1l-102.7,26.1L641,472.8l82-187l40.7-10.3l39.6,155.7l32.9-8.3l13.7,53.8l-32.9,8.3
				l13,51.1L770.2,551.2z M699.9,457.4l50.8-12.9l-16.8-66.1L699.9,457.4z"/>
			<path class="st2" d="M1064.3,380.5c0,16.9-2.6,32.5-7.7,46.8c-5.1,14.3-12.2,26.6-21.2,37c-9,10.4-19.6,18.5-31.8,24.3
				c-12.2,5.8-25.5,8.7-39.9,8.7c-14.4,0-27.7-2.9-40.1-8.7c-12.3-5.8-23-13.9-32-24.3c-9-10.4-16-22.7-21-37
				c-5-14.3-7.5-29.9-7.5-46.8c0-16.9,2.5-32.5,7.5-46.8c5-14.3,12-26.6,21-37c9-10.4,19.6-18.5,32-24.5c12.3-5.9,25.7-8.9,40.1-8.9
				c14.4,0,27.7,3,39.9,8.9c12.2,5.9,22.8,14.1,31.8,24.5c9,10.4,16,22.7,21.2,37C1061.7,347.9,1064.3,363.5,1064.3,380.5z
				 M1002.2,380.5c0-18-3.6-32.5-10.8-43.7c-7.2-11.2-16.4-16.8-27.7-16.8c-11.8,0-21.3,5.6-28.3,16.8
				c-7.1,11.2-10.6,25.7-10.6,43.7c0,18,3.5,32.5,10.6,43.5c7.1,11,16.5,16.6,28.3,16.6c11.3,0,20.5-5.5,27.7-16.6
				C998.6,413,1002.2,398.4,1002.2,380.5z"/>
			<path class="st2" d="M1174.8,541.3l8.4-52.1l-104.6-16.9l8.8-54.4l149.7-138.9l41.4,6.7L1253,444.4l33.5,5.4l-8.9,54.8l-33.5-5.4
				l-8.4,52.1L1174.8,541.3z M1147.7,427.3l51.7,8.4l10.9-67.3L1147.7,427.3z"/>
		</g>
	</g>
	<g>
		<g>
			<rect x="941.5" y="583.4" class="st3" width="53" height="4.3"/>
			<rect x="941.5" y="589" class="st3" width="53" height="4.3"/>
			<rect x="941.5" y="594.7" class="st3" width="53" height="4.3"/>
			<rect x="941.5" y="600.3" class="st3" width="53" height="4.3"/>
			<rect x="941.5" y="606" class="st4" width="53" height="4.3"/>
		</g>
		<g>
			<rect x="916.6" y="718.8" class="st4" width="100.8" height="4.3"/>
			<rect x="916.6" y="724.5" class="st4" width="100.8" height="4.3"/>
			<rect x="916.6" y="730.1" class="st3" width="100.8" height="4.3"/>
			<rect x="916.6" y="735.8" class="st3" width="100.8" height="4.3"/>
			<rect x="916.6" y="741.5" class="st3" width="100.8" height="4.3"/>
		</g>
		<g>
			<g>
				<path class="st5" d="M1060.4,649.3c0.2-0.2,22.7-21.1,49.1-13.9c27,7.3,49.4,48,49.6,48.4l7.5-4.1c-1-1.8-24.3-44.4-54.9-52.6
					c-31.1-8.4-56.2,15-57.2,16L1060.4,649.3z"/>
				<path class="st6" d="M1059.7,649.3c0.2-0.2,22.7-21.1,49.1-13.9c27,7.3,49.4,48,49.6,48.4l7.5-4.1c-1-1.8-24.3-44.4-54.9-52.6
					c-31.1-8.4-56.2,15-57.2,16L1059.7,649.3z"/>
			</g>
			<path class="st7" d="M1149.2,724.8l16.2-8.5c-1.6-2.9-3.5-8-3.7-12.6c-0.4-5.9,2-8,4.6-9.4c5.7-3,9.1-1.8,11.4-0.4
				c3.2,1.9,6.5,5.8,9.3,11l16.2-8.5c-4.4-8.4-9.9-14.5-16.2-18.3c-6.3-3.7-16.5-6.7-29.2,0c-10,5.3-15,14.7-14.3,26.7
				C1143.9,714.2,1148,722.4,1149.2,724.8z"/>
		</g>
		<g>
			<g>
				<path class="st5" d="M872.4,547.5c0-0.6-22.1-8-22.1-8l1.3-76l29.3-6.3L872.4,547.5z"/>
				<path class="st3" d="M872.4,547.5c0-0.6-22.1-8-22.1-8l1.3-76l29.3-6.3L872.4,547.5z"/>
			</g>
			<g>
				<path class="st5" d="M1074.9,577.3c0.2-0.6,23.5,0.1,23.5,0.1l24.9-71.8l-25.4-16L1074.9,577.3z"/>
				<path class="st3" d="M1074.9,577.3c0.2-0.6,23.5,0.1,23.5,0.1l24.9-71.8l-25.4-16L1074.9,577.3z"/>
			</g>
			<path class="st7" d="M868.2,575.4c0,0,8.2-122.8,15.4-163.3c0,0,148.4,11.2,228.5,41.8c0,0-41.3,143.5-43.4,150.6
				C1068.6,604.6,964.1,584.1,868.2,575.4z"/>
			<g>
				<path class="st8" d="M1000.6,428.6c-2.4,14.8-4.9,29.6-7.4,44.3l-7.6,44.3l-0.4-0.6l49.7,11.8l24.8,6l24.8,6.1l-24.9-5.6
					l-24.9-5.7l-49.8-11.6l-0.5-0.1l0.1-0.5l7.9-44.3C995.1,458.1,997.8,443.3,1000.6,428.6z"/>
				<path class="st8" d="M995.2,437c0,1.4-1.1,2.7-2.6,2.9c-0.8,0.1-1.6-0.2-2.2-0.7c-0.6-0.5-1-1.4-1-2.2c0-0.8,0.4-1.7,1-2.2
					c0.6-0.5,1.4-0.8,2.2-0.7C994.1,434.3,995.2,435.7,995.2,437z M995.2,437c0-0.7-0.3-1.4-0.8-1.8c-0.5-0.4-1.2-0.6-1.8-0.5
					c-1.3,0.1-2.1,1.3-2,2.3c0,1.1,0.8,2.2,2,2.3c0.6,0.1,1.3-0.1,1.8-0.5C994.9,438.4,995.2,437.7,995.2,437z"/>
				<path class="st8" d="M992.6,455.3c0,1.4-1.1,2.7-2.6,2.9c-0.8,0.1-1.6-0.2-2.2-0.7c-0.6-0.5-1-1.4-1-2.2c0-0.8,0.4-1.7,1-2.2
					c0.6-0.5,1.4-0.8,2.2-0.7C991.5,452.6,992.6,454,992.6,455.3z M992.6,455.3c0-0.7-0.3-1.4-0.8-1.8c-0.5-0.4-1.2-0.6-1.8-0.5
					c-1.3,0.1-2.1,1.3-2,2.3c0,1.1,0.8,2.2,2,2.3c0.6,0.1,1.3-0.1,1.8-0.5C992.3,456.7,992.6,456,992.6,455.3z"/>
				<path class="st8" d="M989.4,474.6c0,1.4-1.1,2.7-2.6,2.9c-0.8,0.1-1.6-0.2-2.2-0.7c-0.6-0.5-1-1.4-1-2.2c0-0.8,0.4-1.7,1-2.2
					c0.6-0.5,1.4-0.8,2.2-0.7C988.3,471.9,989.4,473.3,989.4,474.6z M989.4,474.6c0-0.7-0.3-1.4-0.8-1.8c-0.5-0.4-1.2-0.6-1.8-0.5
					c-1.3,0.1-2.1,1.3-2,2.3c0,1.1,0.8,2.2,2,2.3c0.6,0.1,1.3-0.1,1.8-0.5C989,476,989.3,475.3,989.4,474.6z"/>
				<path class="st8" d="M986.1,493.9c0,1.4-1.1,2.7-2.6,2.9c-0.8,0.1-1.6-0.2-2.2-0.7c-0.6-0.5-1-1.4-1-2.2c0-0.8,0.4-1.7,1-2.2
					c0.6-0.5,1.4-0.8,2.2-0.7C985.1,491.2,986.2,492.6,986.1,493.9z M986.1,493.9c0-0.7-0.3-1.4-0.8-1.8c-0.5-0.4-1.2-0.6-1.8-0.5
					c-1.3,0.1-2.1,1.3-2,2.3c0,1.1,0.8,2.2,2,2.3c0.6,0.1,1.3-0.1,1.8-0.5C985.8,495.3,986.1,494.6,986.1,493.9z"/>
				<path class="st8" d="M997.1,524.7c0,1.4-1.1,2.7-2.6,2.9c-0.8,0.1-1.6-0.2-2.2-0.7c-0.6-0.5-1-1.4-1-2.2c0-0.8,0.4-1.7,1-2.2
					c0.6-0.5,1.4-0.8,2.2-0.7C996,522,997.1,523.4,997.1,524.7z M997.1,524.7c0-0.7-0.3-1.4-0.8-1.8c-0.5-0.4-1.2-0.6-1.8-0.5
					c-1.3,0.1-2.1,1.3-2,2.3c0,1.1,0.8,2.2,2,2.3c0.6,0.1,1.3-0.1,1.8-0.5C996.8,526.1,997.1,525.4,997.1,524.7z"/>
				<path class="st8" d="M1015.3,529.2c0,1.4-1.1,2.7-2.6,2.9c-0.8,0.1-1.6-0.2-2.2-0.7c-0.6-0.5-1-1.4-1-2.2c0-0.8,0.4-1.7,1-2.2
					c0.6-0.5,1.4-0.8,2.2-0.7C1014.3,526.4,1015.3,527.8,1015.3,529.2z M1015.3,529.2c0-0.7-0.3-1.4-0.8-1.8
					c-0.5-0.4-1.2-0.6-1.8-0.5c-1.3,0.1-2.1,1.3-2,2.3c0,1.1,0.8,2.2,2,2.3c0.6,0.1,1.3-0.1,1.8-0.5
					C1015,530.5,1015.3,529.9,1015.3,529.2z"/>
				<path class="st8" d="M1033.5,533.6c0,1.4-1.1,2.7-2.6,2.9c-0.8,0.1-1.6-0.2-2.2-0.7c-0.6-0.5-1-1.4-1-2.2c0-0.8,0.4-1.7,1-2.2
					c0.6-0.5,1.4-0.8,2.2-0.7C1032.5,530.9,1033.6,532.3,1033.5,533.6z M1033.5,533.6c0-0.7-0.3-1.4-0.8-1.8
					c-0.5-0.4-1.2-0.6-1.8-0.5c-1.3,0.1-2.1,1.3-2,2.3c0,1.1,0.8,2.2,2,2.3c0.6,0.1,1.3-0.1,1.8-0.5
					C1033.2,535,1033.5,534.3,1033.5,533.6z"/>
				<path class="st8" d="M1051.8,538.1c0,1.4-1.1,2.7-2.6,2.9c-0.8,0.1-1.6-0.2-2.2-0.7c-0.6-0.5-1-1.4-1-2.2c0-0.8,0.4-1.7,1-2.2
					c0.6-0.5,1.4-0.8,2.2-0.7C1050.7,535.3,1051.8,536.7,1051.8,538.1z M1051.8,538.1c0-0.7-0.3-1.4-0.8-1.8
					c-0.5-0.4-1.2-0.6-1.8-0.5c-1.3,0.1-2.1,1.3-2,2.3c0,1.1,0.8,2.2,2,2.3c0.6,0.1,1.3-0.1,1.8-0.5
					C1051.5,539.4,1051.8,538.8,1051.8,538.1z"/>
				<path class="st8" d="M1070,542.7c-0.1,1.4-1.3,2.7-2.8,2.7c-0.8,0-1.6-0.3-2.1-0.9c-0.6-0.6-0.9-1.4-0.8-2.3
					c0.1-0.8,0.5-1.6,1.1-2.1c0.7-0.5,1.5-0.7,2.2-0.5C1069.2,539.9,1070.1,541.4,1070,542.7z M1070,542.7c0-0.7-0.2-1.4-0.7-1.8
					c-0.5-0.5-1.1-0.7-1.7-0.7c-1.3,0-2.2,1.1-2.2,2.2c-0.1,1.1,0.6,2.2,1.9,2.5c0.6,0.1,1.3,0,1.8-0.4
					C1069.6,544.1,1069.9,543.4,1070,542.7z"/>
				<path class="st8" d="M982.9,513.2c0,1.4-1.1,2.7-2.6,2.9c-0.8,0.1-1.6-0.2-2.2-0.7c-0.6-0.5-1-1.4-1-2.2c0-0.8,0.4-1.7,1-2.2
					c0.6-0.5,1.4-0.8,2.2-0.7C981.9,510.5,983,511.9,982.9,513.2z M982.9,513.2c0-0.7-0.3-1.4-0.8-1.8c-0.5-0.4-1.2-0.6-1.8-0.5
					c-1.3,0.1-2.1,1.3-2,2.3c0,1.1,0.8,2.2,2,2.3c0.6,0.1,1.3-0.1,1.8-0.5C982.6,514.6,982.9,513.9,982.9,513.2z"/>
			</g>
			<g>
				<g>
					
						<ellipse transform="matrix(0.7071 -0.7071 0.7071 0.7071 -92.7352 803.9357)" class="st9" cx="924.1" cy="513.9" rx="42.1" ry="42.1"/>
					
						<ellipse transform="matrix(0.354 -0.9352 0.9352 0.354 116.3035 1196.2)" class="st10" cx="924.1" cy="513.9" rx="33.8" ry="33.8"/>
					<g>
						
							<rect x="913.4" y="500.8" transform="matrix(0.9871 0.1599 -0.1599 0.9871 92.5387 -140.2201)" class="st5" width="8" height="8"/>
						
							<rect x="906.8" y="491.6" transform="matrix(0.9871 0.1599 -0.1599 0.9871 90.9853 -139.2794)" class="st5" width="8" height="8"/>
						
							<rect x="938.4" y="496.8" transform="matrix(0.9871 0.1599 -0.1599 0.9871 92.2108 -144.2675)" class="st5" width="8" height="8"/>
						
							<rect x="901.7" y="523.1" transform="matrix(0.9871 0.1599 -0.1599 0.9871 95.9453 -138.0608)" class="st5" width="8" height="8"/>
						
							<rect x="933.3" y="528.2" transform="matrix(0.9871 0.1599 -0.1599 0.9871 97.1708 -143.0489)" class="st5" width="8" height="8"/>
						
							<rect x="910.9" y="516.4" transform="matrix(0.9871 0.1599 -0.1599 0.9871 95.0046 -139.6142)" class="st5" width="8" height="8"/>
						
							<rect x="920.1" y="509.9" transform="matrix(0.9871 0.1599 -0.1599 0.9871 94.078 -141.1642)" class="st5" width="8" height="8"/>
						
							<rect x="929.2" y="503.4" transform="matrix(0.9871 0.1599 -0.1599 0.9871 93.1515 -142.7141)" class="st5" width="8" height="8"/>
						
							<rect x="926.7" y="519" transform="matrix(0.9871 0.1599 -0.1599 0.9871 95.6296 -142.1237)" class="st5" width="8" height="8"/>
					</g>
				</g>
				<g>
					<g>
						
							<ellipse transform="matrix(0.6338 -0.7735 0.7735 0.6338 -31.3749 996.8646)" class="st5" cx="1037.2" cy="531.6" rx="42.1" ry="42.1"/>
						
							<ellipse transform="matrix(0.6338 -0.7735 0.7735 0.6338 -31.3749 996.8646)" class="st3" cx="1037.2" cy="531.6" rx="42.1" ry="42.1"/>
						<path class="st9" d="M1078.2,541.3c-0.2,0.8-0.4,1.6-0.7,2.4l-82.1-17.5c0.2-1.5,0.5-2.9,0.8-4.4
							c5.4-22.6,28.1-36.6,50.7-31.3C1069.5,495.9,1083.5,518.7,1078.2,541.3z"/>
					</g>
					
						<ellipse transform="matrix(0.9227 -0.3855 0.3855 0.9227 -124.7578 440.9281)" class="st10" cx="1037.2" cy="531.6" rx="33.8" ry="33.8"/>
					<g>
						
							<rect x="1033.1" y="511.6" transform="matrix(0.9729 0.2312 -0.2312 0.9729 151.0143 -225.4049)" class="st5" width="8" height="39.8"/>
					</g>
					<g>
						<path class="st5" d="M1080.6,540.5L994.3,520c5.7-23.8,29.6-38.5,53.4-32.9C1071.5,492.8,1086.3,516.7,1080.6,540.5z"/>
						<path class="st3" d="M1080.6,540.5L994.3,520c5.7-23.8,29.6-38.5,53.4-32.9C1071.5,492.8,1086.3,516.7,1080.6,540.5z"/>
					</g>
				</g>
				<path class="st8" d="M963.8,556.6c0.2-3.4,1.5-6.8,3.9-9.5c1.2-1.4,2.8-2.4,4.6-3.1c1.8-0.7,3.7-0.8,5.5-0.6
					c1.9,0.2,3.8,0.9,5.3,2c1.5,1.2,2.7,2.8,3.4,4.4c1.4,3.3,1.6,6.9,0.9,10.2c-0.6-3.3-1.4-6.5-3-9.2c-1.5-2.7-4-4.3-6.9-4.6
					c-3-0.4-5.9,0.4-8.2,2.4C967,550.8,965.2,553.6,963.8,556.6z"/>
			</g>
			<g>
				<path class="st2" d="M879.7,470.7c0.4-4.5,0.9-9,1.3-13.5c0.5-4.5,1-9,1.5-13.4c0.5-4.5,1.1-8.9,1.7-13.4
					c0.6-4.5,1.2-8.9,1.8-13.4l0.2-1.2l1.2,0.1c9.7,0.6,19.4,1.4,29.1,2.4c4.8,0.5,9.7,1.1,14.5,1.7c4.8,0.7,9.7,1.3,14.4,2.2
					l-29.1-1.8l-29.1-1.9l1.4-1.1c-0.7,4.5-1.3,8.9-2,13.4c-0.7,4.5-1.4,8.9-2.1,13.4c-0.7,4.5-1.5,8.9-2.3,13.3
					C881.4,461.8,880.6,466.2,879.7,470.7z"/>
				<path class="st2" d="M886.7,504.7c1-5.4,3.4-10.6,6.7-15.1c0.8-1.1,1.8-2.2,2.7-3.2c1-1,2-2,3-3c1.1-0.9,2.2-1.8,3.3-2.6
					c1.2-0.8,2.4-1.5,3.6-2.3c1.3-0.6,2.5-1.2,3.8-1.8l4-1.4l4.1-0.9c1.4-0.2,2.8-0.2,4.2-0.4c5.6-0.1,11.1,1.1,16.2,3.1
					c-5.4-1-10.8-1.6-16.1-1.1c-5.3,0.5-10.4,2.1-15,4.7c-4.6,2.5-8.7,6-12.2,10.1C891.6,495,888.7,499.6,886.7,504.7z"/>
				<path class="st2" d="M1003,516.1c1.7-5.2,4.9-10,8.8-14c1-1,2-1.9,3.1-2.8c1.1-0.9,2.2-1.7,3.4-2.5c1.2-0.7,2.4-1.4,3.6-2.1
					c1.3-0.6,2.6-1.2,3.9-1.7c1.3-0.4,2.7-0.9,4-1.3l4.2-0.8l4.2-0.3c1.4,0,2.8,0.1,4.2,0.2c5.6,0.6,10.9,2.6,15.6,5.3
					c-5.2-1.7-10.5-3-15.8-3.3c-5.3-0.2-10.6,0.6-15.5,2.5c-4.9,1.9-9.5,4.8-13.5,8.3C1009.1,507.2,1005.7,511.3,1003,516.1z"/>
			</g>
		</g>
		<g>
			<g>
				<g>
					<path class="st5" d="M872.9,651.2c-10.8,0-34.4-2.4-49.6-22c-19.5-25-12.4-73-12.1-75l8.4,1.3c-0.1,0.5-6.8,46.4,10.4,68.5
						c16.8,21.6,47.3,18.5,47.6,18.5l1,8.5C878.2,650.9,876.1,651.2,872.9,651.2z"/>
					<path class="st6" d="M872.1,651.2c-10.8,0-34.4-2.4-49.6-22c-19.5-25-12.4-73-12.1-75l8.4,1.3c-0.1,0.5-6.8,46.4,10.4,68.5
						c16.8,21.6,47.3,18.5,47.6,18.5l1,8.5C877.5,650.9,875.4,651.2,872.1,651.2z"/>
				</g>
				<path class="st7" d="M822.1,561.2c-1.5,0-3.1-0.1-4.7-0.4c-14.2-2.3-20.6-10.8-23.3-17.6c-2.8-6.8-3.4-14.9-1.9-24.3l18.1,2.9
					c-0.9,5.8-0.7,10.9,0.8,14.4c1,2.5,3,5.5,9.3,6.5c2.9,0.5,6,0.2,9.3-4.7c2.5-3.8,4-9,4.6-12.3l18.1,2.9
					c-0.4,2.6-2.2,11.6-7.4,19.5C839.2,556.7,831.2,561.2,822.1,561.2z"/>
				<g>
					<path class="st5" d="M890.7,675.6c0-0.4-15.3-2.8-15.3-2.8l-7.4-49.9l18.5-7.3L890.7,675.6z"/>
					<path class="st3" d="M890.7,675.6c0-0.4-15.3-2.8-15.3-2.8l-7.4-49.9l18.5-7.3L890.7,675.6z"/>
				</g>
			</g>
			<g>
				<path class="st5" d="M1041.8,675.7c0-0.4,15.4-2.5,15.4-2.5l8.5-49.7l-18.3-7.7L1041.8,675.7z"/>
				<path class="st9" d="M1041.8,675.7c0-0.4,15.4-2.5,15.4-2.5l8.5-49.7l-18.3-7.7L1041.8,675.7z"/>
			</g>
			<path class="st7" d="M884.4,604.4c0,0,123.6-5.3,165.3,1.7c0,0-12.3,119.6-12.9,121.9c0,0-122.9-0.3-142.1,0
				C894.6,728,884.2,648.5,884.4,604.4z"/>
			<g>
				<path class="st9" d="M921.9,637.2c0,0,67.5-2.7,90.2,0.8c0,0-6.7,60.3-7.1,61.5c0,0-67.1-0.2-77.6,0
					C927.5,699.5,922.9,658.2,921.9,637.2z"/>
				<path class="st9" d="M931.1,699.5c-1.5,0-2.8,0-3.6,0c0,0-4.6-41.3-5.6-62.3c0,0,1.5-0.1,4.2-0.1L931.1,699.5z"/>
				<g>
					<g>
						<g>
							<g>
								<path class="st11" d="M951,652.1c-3.8-1.2-7.8,0.9-9,4.7c-1.2,3.8,0.9,7.8,4.7,9c3.8,1.2,7.8-0.9,9-4.7
									C956.9,657.3,954.8,653.3,951,652.1z M954.9,660.8c-1,3.3-4.6,5.2-7.9,4.1c-3.3-1-5.2-4.6-4.1-7.9c1-3.3,4.6-5.2,7.9-4.1
									C954.1,654,955.9,657.5,954.9,660.8z M951,652.1c-3.8-1.2-7.8,0.9-9,4.7c-1.2,3.8,0.9,7.8,4.7,9c3.8,1.2,7.8-0.9,9-4.7
									C956.9,657.3,954.8,653.3,951,652.1z M954.9,660.8c-1,3.3-4.6,5.2-7.9,4.1c-3.3-1-5.2-4.6-4.1-7.9c1-3.3,4.6-5.2,7.9-4.1
									C954.1,654,955.9,657.5,954.9,660.8z M951,652.1c-3.8-1.2-7.8,0.9-9,4.7c-1.2,3.8,0.9,7.8,4.7,9c3.8,1.2,7.8-0.9,9-4.7
									C956.9,657.3,954.8,653.3,951,652.1z M954.9,660.8c-1,3.3-4.6,5.2-7.9,4.1c-3.3-1-5.2-4.6-4.1-7.9c1-3.3,4.6-5.2,7.9-4.1
									C954.1,654,955.9,657.5,954.9,660.8z M953.4,644.5c-8-2.5-16.5,1.9-19,9.9c-2.5,8,1.9,16.5,9.9,19c8,2.5,16.5-1.9,19-9.9
									C965.8,655.5,961.4,647,953.4,644.5z M956.8,661.4c-1.4,4.4-6,6.8-10.4,5.4c-4.4-1.4-6.8-6-5.4-10.4c1.4-4.4,6-6.8,10.4-5.4
									C955.7,652.4,958.1,657.1,956.8,661.4z M955.7,661.1c1.2-3.8-0.9-7.8-4.7-9c-3.8-1.2-7.8,0.9-9,4.7c-1.2,3.8,0.9,7.8,4.7,9
									C950.5,667,954.5,664.9,955.7,661.1z M954.9,660.8c-1,3.3-4.6,5.2-7.9,4.1c-3.3-1-5.2-4.6-4.1-7.9c1-3.3,4.6-5.2,7.9-4.1
									C954.1,654,955.9,657.5,954.9,660.8z M951,652.1c-3.8-1.2-7.8,0.9-9,4.7c-1.2,3.8,0.9,7.8,4.7,9c3.8,1.2,7.8-0.9,9-4.7
									C956.9,657.3,954.8,653.3,951,652.1z M954.9,660.8c-1,3.3-4.6,5.2-7.9,4.1c-3.3-1-5.2-4.6-4.1-7.9c1-3.3,4.6-5.2,7.9-4.1
									C954.1,654,955.9,657.5,954.9,660.8z M951,652.1c-3.8-1.2-7.8,0.9-9,4.7c-1.2,3.8,0.9,7.8,4.7,9c3.8,1.2,7.8-0.9,9-4.7
									C956.9,657.3,954.8,653.3,951,652.1z M954.9,660.8c-1,3.3-4.6,5.2-7.9,4.1c-3.3-1-5.2-4.6-4.1-7.9c1-3.3,4.6-5.2,7.9-4.1
									C954.1,654,955.9,657.5,954.9,660.8z"/>
								<g>
									<polygon class="st11" points="947.3,673.6 941.7,671.9 940.8,675.9 945.7,677.4 									"/>
									<polygon class="st11" points="937.3,668.4 934.6,663.3 931.1,665.5 933.5,670 									"/>
									<polygon class="st11" points="933.9,657.7 935.7,652.2 931.7,651.2 930.1,656.2 									"/>
									<polygon class="st11" points="939.1,647.7 944.3,645.1 942.1,641.5 937.5,643.9 									"/>
									<polygon class="st11" points="949.9,644.4 955.4,646.1 956.3,642.1 951.4,640.5 									"/>
									<polygon class="st11" points="959.8,649.6 962.5,654.7 966,652.5 963.6,647.9 									"/>
									<polygon class="st11" points="963.2,660.3 961.5,665.8 965.5,666.8 967,661.8 									"/>
									<polygon class="st5" points="958,670.2 952.8,672.9 955,676.4 959.6,674 									"/>
								</g>
							</g>
						</g>
					</g>
				</g>
				<g>
					<g>
						<g>
							<g>
								<path class="st12" d="M975.4,673.2c-2.2-1.5-5.2-0.8-6.7,1.4c-1.5,2.2-0.8,5.2,1.4,6.7c2.2,1.5,5.2,0.8,6.7-1.4
									C978.3,677.6,977.7,674.6,975.4,673.2z M976.3,679.5c-1.3,2-3.9,2.5-5.9,1.2s-2.5-3.9-1.2-5.9c1.3-2,3.9-2.5,5.9-1.2
									C977.1,675,977.6,677.6,976.3,679.5z M975.4,673.2c-2.2-1.5-5.2-0.8-6.7,1.4c-1.5,2.2-0.8,5.2,1.4,6.7
									c2.2,1.5,5.2,0.8,6.7-1.4C978.3,677.6,977.7,674.6,975.4,673.2z M976.3,679.5c-1.3,2-3.9,2.5-5.9,1.2s-2.5-3.9-1.2-5.9
									c1.3-2,3.9-2.5,5.9-1.2C977.1,675,977.6,677.6,976.3,679.5z M975.4,673.2c-2.2-1.5-5.2-0.8-6.7,1.4
									c-1.5,2.2-0.8,5.2,1.4,6.7c2.2,1.5,5.2,0.8,6.7-1.4C978.3,677.6,977.7,674.6,975.4,673.2z M976.3,679.5
									c-1.3,2-3.9,2.5-5.9,1.2s-2.5-3.9-1.2-5.9c1.3-2,3.9-2.5,5.9-1.2C977.1,675,977.6,677.6,976.3,679.5z M978.3,668.7
									c-4.7-3.1-11-1.7-14.1,3c-3.1,4.7-1.7,11,3,14.1c4.7,3.1,11,1.7,14.1-3C984.4,678.1,983,671.8,978.3,668.7z M977.5,680.3
									c-1.7,2.6-5.1,3.3-7.7,1.6c-2.6-1.7-3.3-5.1-1.6-7.7c1.7-2.6,5.1-3.3,7.7-1.6C978.4,674.2,979.1,677.7,977.5,680.3z
									 M976.8,679.9c1.5-2.2,0.8-5.2-1.4-6.7c-2.2-1.5-5.2-0.8-6.7,1.4c-1.5,2.2-0.8,5.2,1.4,6.7
									C972.4,682.7,975.4,682.1,976.8,679.9z M976.3,679.5c-1.3,2-3.9,2.5-5.9,1.2s-2.5-3.9-1.2-5.9c1.3-2,3.9-2.5,5.9-1.2
									C977.1,675,977.6,677.6,976.3,679.5z M975.4,673.2c-2.2-1.5-5.2-0.8-6.7,1.4c-1.5,2.2-0.8,5.2,1.4,6.7
									c2.2,1.5,5.2,0.8,6.7-1.4C978.3,677.6,977.7,674.6,975.4,673.2z M976.3,679.5c-1.3,2-3.9,2.5-5.9,1.2s-2.5-3.9-1.2-5.9
									c1.3-2,3.9-2.5,5.9-1.2C977.1,675,977.6,677.6,976.3,679.5z M975.4,673.2c-2.2-1.5-5.2-0.8-6.7,1.4
									c-1.5,2.2-0.8,5.2,1.4,6.7c2.2,1.5,5.2,0.8,6.7-1.4C978.3,677.6,977.7,674.6,975.4,673.2z M976.3,679.5
									c-1.3,2-3.9,2.5-5.9,1.2s-2.5-3.9-1.2-5.9c1.3-2,3.9-2.5,5.9-1.2C977.1,675,977.6,677.6,976.3,679.5z"/>
								<g>
									<polygon class="st12" points="969.1,686.5 965.8,684.3 964.5,686.8 967.4,688.7 									"/>
									<polygon class="st12" points="963.6,681.3 962.8,677.5 960.1,678.3 960.8,681.7 									"/>
									<polygon class="st12" points="963.3,673.7 965.5,670.5 963,669.1 961.1,672 									"/>
									<polygon class="st12" points="968.5,668.2 972.3,667.4 971.5,664.7 968.1,665.5 									"/>
									<polygon class="st12" points="976.1,668 979.3,670.1 980.7,667.7 977.8,665.8 									"/>
									<polygon class="st12" points="981.6,673.1 982.4,677 985.1,676.2 984.3,672.8 									"/>
									<polygon class="st12" points="981.8,680.7 979.7,684 982.1,685.3 984,682.4 									"/>
									<polygon class="st12" points="976.7,686.2 972.8,687 973.6,689.7 977,689 									"/>
								</g>
							</g>
						</g>
					</g>
				</g>
			</g>
			<g>
				<polygon class="st7" points="1046.7,714.1 1051.5,715 1065,623 1059.6,622 				"/>
				<g>
					<path class="st5" d="M1005.1,699.5l7.1-61.5l47.5-16.1c0,0-12.9,93.1-12.9,92.1L1005.1,699.5z"/>
					<path class="st3" d="M1005.1,699.5l7.1-61.5l47.5-16.1c0,0-12.9,93.1-12.9,92.1L1005.1,699.5z"/>
				</g>
			</g>
			<path class="st2" d="M890,640.5c-0.8-5.1-1.2-10.2-1.5-15.4c-0.1-2.6-0.2-5.1-0.3-7.7c-0.1-2.6-0.1-5.1,0-7.7l0-0.7l0.7,0
				c9.4-0.5,18.9-1.1,28.3-1.5c9.4-0.5,18.9-0.9,28.3-1.2c-9.4,0.9-18.8,1.6-28.2,2.3c-9.4,0.7-18.8,1.3-28.3,1.9l0.7-0.7l0,7.7
				l0.1,7.7c0,2.6,0.1,5.1,0.1,7.7L890,640.5z"/>
			<path class="st2" d="M1018.8,638.9c2.9-1.4,5.9-2.7,9-3.9c3-1.2,6.1-2.4,9.1-3.5c3.1-1.1,6.2-2.1,9.3-3c3.1-0.9,6.3-1.7,9.5-2.2
				l0.8-0.1l-0.1,0.8c-0.7,4-1.5,8-2.4,11.9c0.3-4,0.8-8.1,1.4-12.1l0.7,0.6c-3.1,0.7-6.2,1.6-9.3,2.5c-3.1,0.9-6.2,1.9-9.3,2.9
				L1018.8,638.9z"/>
			<g>
				<polygon class="st8" points="910.6,604.7 911.4,620.1 912.1,635.4 913.3,666.2 914.2,697 914.6,712.4 914.8,727.7 914,712.4 
					913.3,697 912.1,666.2 911.2,635.5 910.8,620.1 				"/>
				<path class="st8" d="M906.2,614c0.3,1.3-0.5,2.9-2,3.3c-0.7,0.2-1.6,0.1-2.3-0.3c-0.7-0.4-1.2-1.1-1.4-1.9
					c-0.2-0.8,0-1.7,0.5-2.3c0.5-0.6,1.3-1,2-1.1C904.6,611.5,905.9,612.6,906.2,614z M906.2,614c-0.1-0.7-0.6-1.3-1.2-1.6
					c-0.6-0.3-1.3-0.4-1.9-0.2c-1.2,0.4-1.8,1.7-1.5,2.7c0.2,1,1.2,2,2.5,1.9c0.6-0.1,1.2-0.4,1.6-0.9
					C906.2,615.3,906.3,614.6,906.2,614z"/>
				<path class="st8" d="M907.2,632.4c0.3,1.3-0.5,2.9-2,3.3c-0.7,0.2-1.6,0.1-2.3-0.3c-0.7-0.4-1.2-1.1-1.4-1.9
					c-0.2-0.8,0-1.7,0.5-2.3c0.5-0.6,1.3-1,2-1.1C905.7,629.9,907,631,907.2,632.4z M907.2,632.4c-0.1-0.7-0.6-1.3-1.2-1.6
					c-0.6-0.3-1.3-0.4-1.9-0.2c-1.2,0.4-1.8,1.7-1.5,2.7c0.2,1,1.2,2,2.5,1.9c0.6-0.1,1.2-0.4,1.6-0.9
					C907.2,633.8,907.4,633.1,907.2,632.4z"/>
				<path class="st8" d="M907.9,652c0.3,1.3-0.5,2.9-2,3.3c-0.7,0.2-1.6,0.1-2.3-0.3c-0.7-0.4-1.2-1.1-1.4-1.9
					c-0.2-0.8,0-1.7,0.5-2.3c0.5-0.6,1.3-1,2-1.1C906.3,649.5,907.7,650.6,907.9,652z M907.9,652c-0.1-0.7-0.6-1.3-1.2-1.6
					c-0.6-0.3-1.3-0.4-1.9-0.2c-1.2,0.4-1.8,1.7-1.5,2.7c0.2,1,1.2,2,2.5,1.9c0.6-0.1,1.2-0.4,1.6-0.9
					C907.9,653.3,908,652.6,907.9,652z"/>
				<path class="st8" d="M908.6,671.5c0.3,1.3-0.5,2.9-2,3.3c-0.7,0.2-1.6,0.1-2.3-0.3c-0.7-0.4-1.2-1.1-1.4-1.9
					c-0.2-0.8,0-1.7,0.5-2.3c0.5-0.6,1.3-1,2-1.1C907,669,908.3,670.2,908.6,671.5z M908.6,671.5c-0.1-0.7-0.6-1.3-1.2-1.6
					c-0.6-0.3-1.3-0.4-1.9-0.2c-1.2,0.4-1.8,1.7-1.5,2.7c0.2,1,1.2,2,2.5,1.9c0.6-0.1,1.2-0.4,1.6-0.9
					C908.6,672.9,908.7,672.2,908.6,671.5z"/>
				<path class="st8" d="M909.3,691.1c0.3,1.3-0.5,2.9-2,3.3c-0.7,0.2-1.6,0.1-2.3-0.3c-0.7-0.4-1.2-1.1-1.4-1.9
					c-0.2-0.8,0-1.7,0.5-2.3c0.5-0.6,1.3-1,2-1.1C907.7,688.6,909,689.7,909.3,691.1z M909.3,691.1c-0.1-0.7-0.6-1.3-1.2-1.6
					c-0.6-0.3-1.3-0.4-1.9-0.2c-1.2,0.4-1.8,1.7-1.5,2.7c0.2,1,1.2,2,2.5,1.9c0.6-0.1,1.2-0.4,1.6-0.9
					C909.2,692.5,909.4,691.8,909.3,691.1z"/>
				<path class="st8" d="M909.9,710.7c0.3,1.3-0.5,2.9-2,3.3c-0.7,0.2-1.6,0.1-2.3-0.3c-0.7-0.4-1.2-1.1-1.4-1.9
					c-0.2-0.8,0-1.7,0.5-2.3c0.5-0.6,1.3-1,2-1.1C908.4,708.2,909.7,709.3,909.9,710.7z M909.9,710.7c-0.1-0.7-0.6-1.3-1.2-1.6
					c-0.6-0.3-1.3-0.4-1.9-0.2c-1.2,0.4-1.8,1.7-1.5,2.7c0.2,1,1.2,2,2.5,1.9c0.6-0.1,1.2-0.4,1.6-0.9
					C909.9,712,910.1,711.3,909.9,710.7z"/>
			</g>
		</g>
		<g>
			<rect x="845.7" y="751" transform="matrix(0.957 -0.29 0.29 0.957 -181.1309 288.3559)" class="st5" width="73.1" height="8.5"/>
			<rect x="844.9" y="751" transform="matrix(0.957 -0.29 0.29 0.957 -181.1639 288.1337)" class="st6" width="73.1" height="8.5"/>
			
				<rect x="876.1" y="748.9" transform="matrix(0.953 -0.3031 0.3031 0.953 -187.5035 302.3506)" class="st7" width="8.5" height="12.7"/>
			<g>
				<polygon class="st7" points="847.9,781.9 829.9,703.7 775.4,716.7 802.2,792.9 				"/>
				<g>
					<polygon class="st5" points="860,777.9 847.9,781.9 829.9,703.7 847.3,707.9 					"/>
					<polygon class="st3" points="860,777.9 847.9,781.9 829.9,703.7 847.3,707.9 					"/>
				</g>
			</g>
			<circle class="st7" cx="917.2" cy="744.7" r="9.3"/>
		</g>
		<g>
			
				<rect x="1042.1" y="718.6" transform="matrix(0.292 -0.9564 0.9564 0.292 18.6376 1535.4086)" class="st5" width="8.5" height="73.1"/>
			
				<rect x="1041.4" y="718.6" transform="matrix(0.292 -0.9564 0.9564 0.292 18.0954 1534.6759)" class="st6" width="8.5" height="73.1"/>
			
				<rect x="1042" y="750.8" transform="matrix(0.3052 -0.9523 0.9523 0.3052 9.2766 1522.9541)" class="st7" width="12.7" height="8.5"/>
			<g>
				<polygon class="st7" points="1080.7,781.9 1098.9,703.7 1153.4,716.7 1126.4,792.9 				"/>
				<g>
					<polygon class="st5" points="1068.6,777.9 1080.7,781.9 1098.9,703.7 1081.5,707.8 					"/>
					<polygon class="st3" points="1068.6,777.9 1080.7,781.9 1098.9,703.7 1081.5,707.8 					"/>
				</g>
			</g>
			<path class="st7" d="M1002.2,744.4c0,5.1,4.1,9.3,9.3,9.3c5.1,0,9.3-4.1,9.3-9.3c0-5.1-4.1-9.3-9.3-9.3
				C1006.4,735.2,1002.2,739.3,1002.2,744.4z"/>
		</g>
		<g>
			<path class="st10" d="M1075.6,619.5c3.5-2.4,7.1-4.7,10.7-7c3.6-2.3,7.3-4.5,10.9-6.6c3.7-2.1,7.3-4.3,11.1-6.3l5.6-3.1
				c1.9-1,3.8-2,5.7-2.9c-1.7,1.2-3.5,2.4-5.3,3.6l-5.4,3.4c-3.6,2.3-7.3,4.5-10.9,6.6c-3.7,2.1-7.3,4.3-11.1,6.3
				C1083.2,615.5,1079.4,617.6,1075.6,619.5z"/>
			<path class="st10" d="M1066.3,654.4c5,2.9,9.8,6.1,14.5,9.4c4.7,3.4,9.3,6.8,13.6,10.6c-5-2.9-9.8-6.1-14.5-9.4
				C1075.3,661.7,1070.6,658.2,1066.3,654.4z"/>
			<path class="st10" d="M1074.6,650.1c3.9,1.2,7.7,2.5,11.5,3.9c3.8,1.3,7.6,2.8,11.4,4.2c3.8,1.5,7.5,3,11.2,4.6l5.6,2.4
				c1.8,0.8,3.7,1.6,5.5,2.5c-1.9-0.6-3.9-1.2-5.8-1.9l-5.7-2c-3.8-1.3-7.6-2.8-11.4-4.2c-3.8-1.5-7.5-3-11.2-4.6
				C1081.9,653.4,1078.2,651.8,1074.6,650.1z"/>
			<path class="st10" d="M1085.6,622.7c3.7-1,7.5-1.8,11.2-2.6c3.7-0.8,7.5-1.5,11.3-2.2c3.8-0.6,7.5-1.3,11.3-1.8l5.7-0.8
				c1.9-0.2,3.8-0.5,5.7-0.6c-1.9,0.5-3.7,0.9-5.6,1.4l-5.6,1.2c-3.7,0.8-7.5,1.5-11.3,2.2c-3.8,0.6-7.5,1.3-11.3,1.8
				C1093.2,621.9,1089.4,622.4,1085.6,622.7z"/>
		</g>
	</g>
</g>
<g>
	<rect x="-2819.4" y="-15.8" class="st11" width="1919.3" height="1081.2"/>
	<g>
		<g>
			<g>
				<path class="st13" d="M-1622.2,480.6v-58h-84h-79.6h-148.1h-79.6h-84v56.7c21.6,3.6,38,22.3,38,44.9c0,22.6-16.4,41.3-38,44.9
					v58h163.5l0,0h148.1l0,0h163.5v-56.7c-21.6-3.6-38-22.3-38-44.9C-1660.2,502.9-1643.8,484.2-1622.2,480.6z"/>
			</g>
		</g>
		<g>
			<g>
				<path class="st11" d="M-1966.8,541.5c-3.9,10.6-13.9,17.9-25.2,17.9c-16.3,0-27.9-12-27.9-29c0-16.4,11.9-28.9,27.6-28.9
					c15.6,0,27.6,12.4,27.6,28.6c0,1.5-0.1,3.1-0.4,4.5h-42.6c1.5,8.2,7.6,13.6,15.6,13.6c5.9,0,10.6-2.7,12.8-6.7H-1966.8z
					 M-1976.9,526c-1.5-7.9-7.6-13.4-15.4-13.4c-7.8,0-13.8,5.4-15.4,13.4H-1976.9z"/>
			</g>
			<g>
				<path class="st11" d="M-1942,530.6l-19.6-28.3h14.2l12.6,18l12.5-18h14.2l-19.6,28.3l19.6,28.3h-14.2l-12.5-18l-12.6,18h-14.2
					L-1942,530.6z"/>
			</g>
			<g>
				<path class="st11" d="M-1883.5,490.2v12h12.3v11.1h-12.3v25.4c0,5.9,2.6,8.4,8.5,8.4h3.8v11.7h-4.9c-13.5,0-19.2-5.6-19.2-19.5
					v-26.1h-8.4v-11.1h8.4l2.8-12H-1883.5z"/>
			</g>
			<g>
				<path class="st11" d="M-1830.1,513.4c-13.4-0.1-21,6.5-21,18.4v27.1h-11.8v-56.7h11.8v10.5c4.3-8.2,13.1-11.1,21-11.1V513.4z"/>
			</g>
			<g>
				<path class="st11" d="M-1780,549.7c-2.5,5.8-10.1,9.8-18,9.8c-16.3,0-27-11.5-27-29c0-17.4,10.6-28.9,27-28.9
					c7.8,0,15.6,4.1,18,9.9v-9.3h11.8v56.7h-11.8V549.7z M-1796.6,547.7c9.8,0,16.6-6.9,16.5-17.1c0-10.1-7-17.2-16.6-17.2
					c-9.9,0-16.6,6.8-16.6,17.1C-1813.3,540.9-1806.5,547.7-1796.6,547.7z"/>
			</g>
			<g>
				<path class="st11" d="M-1713.5,549.7c-2.5,5.8-10.1,9.8-18,9.8c-16.3,0-27-11.5-27-29c0-17.4,10.6-28.9,27-28.9
					c7.8,0,15.6,4.1,18,9.9v-9.3h11.8v56.7h-11.8V549.7z M-1730.1,547.7c9.8,0,16.6-6.9,16.5-17.1c0-10.1-7-17.2-16.6-17.2
					c-9.9,0-16.6,6.8-16.6,17.1C-1746.8,540.9-1740,547.7-1730.1,547.7z"/>
			</g>
		</g>
	</g>
	<g>
		<g>
			<polygon class="st14" points="-2120,955.4 -2109.1,955.4 -2091.8,926.4 -2074.7,955.4 -2063.8,955.4 -2091.9,907.5 			"/>
			<polygon class="st14" points="-2100.8,955.4 -2083.4,955.4 -2091.9,940 			"/>
		</g>
		<g>
			<path class="st14" d="M-1978.1,941.6l-1.6,5.9h-5.4l7-22.9h6.8l7.1,22.9h-5.6l-1.8-5.9H-1978.1z M-1972.3,937.8l-1.4-4.9
				c-0.4-1.4-0.8-3.1-1.2-4.4h-0.1c-0.3,1.3-0.7,3.1-1,4.4l-1.4,4.9H-1972.3z M-1955.2,943.6c2.4,0,3.6-1,3.6-2.5
				c0-1.4-1.1-2.2-3.8-3.2c-3.8-1.4-6.3-3.4-6.3-6.8c0-3.9,3.3-6.9,8.7-6.9c2.6,0,4.5,0.5,5.9,1.2l-1.1,4.2
				c-0.9-0.4-2.6-1.1-4.8-1.1c-2.3,0-3.3,1-3.3,2.2c0,1.5,1.3,2.1,4.2,3.2c4.1,1.5,5.9,3.6,5.9,6.9c0,3.8-2.9,7.1-9.2,7.1
				c-2.6,0-5.2-0.7-6.5-1.4l1-4.3C-1959.6,942.9-1957.4,943.6-1955.2,943.6z M-1929.2,937.8h-8.4v5.5h9.4v4.2h-14.6v-22.9h14.1v4.2
				h-8.9v4.8h8.4V937.8z M-1917.7,924.4c3.4,0,5.8,0.5,7.4,1.8c1.4,1.1,2.1,2.7,2.1,4.8c0,2.9-2.1,4.9-4,5.6v0.1
				c1.6,0.6,2.5,2.2,3.1,4.3c0.7,2.6,1.4,5.6,1.9,6.5h-5.3c-0.4-0.7-0.9-2.5-1.6-5.3c-0.6-2.9-1.6-3.6-3.7-3.7h-1.5v9h-5.1v-22.6
				C-1922.9,924.6-1920.5,924.4-1917.7,924.4z M-1919.5,934.8h2c2.6,0,4.1-1.3,4.1-3.3c0-2.1-1.4-3.2-3.8-3.2c-1.2,0-2,0.1-2.3,0.2
				V934.8z M-1899.1,941.6l-1.6,5.9h-5.4l7-22.9h6.8l7.1,22.9h-5.6l-1.8-5.9H-1899.1z M-1893.3,937.8l-1.4-4.9
				c-0.4-1.4-0.8-3.1-1.2-4.4h-0.1c-0.3,1.3-0.7,3.1-1,4.4l-1.4,4.9H-1893.3z M-1856.1,946.5c-1.6,0.6-4.6,1.3-7.7,1.3
				c-4.2,0-7.2-1-9.3-3.1c-2.1-2-3.3-5-3.2-8.3c0-7.6,5.6-12,13.1-12c3,0,5.2,0.6,6.4,1.1l-1.1,4.2c-1.3-0.5-2.8-1-5.3-1
				c-4.3,0-7.6,2.4-7.6,7.4c0,4.7,3,7.5,7.2,7.5c1.2,0,2.1-0.1,2.5-0.3v-4.8h-3.5v-4h8.6V946.5z M-1845.2,924.4
				c3.4,0,5.8,0.5,7.4,1.8c1.4,1.1,2.1,2.7,2.1,4.8c0,2.9-2.1,4.9-4,5.6v0.1c1.6,0.6,2.5,2.2,3.1,4.3c0.7,2.6,1.4,5.6,1.9,6.5h-5.3
				c-0.4-0.7-0.9-2.5-1.6-5.3c-0.6-2.9-1.6-3.6-3.7-3.7h-1.5v9h-5.1v-22.6C-1850.4,924.6-1847.9,924.4-1845.2,924.4z M-1846.9,934.8
				h2c2.6,0,4.1-1.3,4.1-3.3c0-2.1-1.4-3.2-3.8-3.2c-1.2,0-2,0.1-2.3,0.2V934.8z M-1810.9,935.8c0,7.5-4.5,12.1-11.2,12.1
				c-6.8,0-10.8-5.1-10.8-11.7c0-6.9,4.4-12,11.2-12C-1814.8,924.2-1810.9,929.5-1810.9,935.8z M-1827.5,936.1
				c0,4.5,2.1,7.7,5.6,7.7c3.5,0,5.5-3.3,5.5-7.8c0-4.1-2-7.7-5.5-7.7C-1825.4,928.3-1827.5,931.7-1827.5,936.1z M-1802.3,924.6
				v13.2c0,4,1.5,6,4.2,6c2.7,0,4.2-1.9,4.2-6v-13.2h5.2v12.9c0,7.1-3.6,10.4-9.6,10.4c-5.8,0-9.2-3.2-9.2-10.5v-12.8H-1802.3z
				 M-1777.3,924.4c3.2,0,5.5,0.6,7,1.9c1.5,1.1,2.4,3.1,2.4,5.3c0,2.2-0.7,4.2-2.1,5.4c-1.8,1.7-4.4,2.4-7.4,2.4
				c-0.7,0-1.3,0-1.8-0.1v8.2h-5.1v-22.6C-1782.7,924.6-1780.5,924.4-1777.3,924.4z M-1777.4,935.4c2.8,0,4.5-1.4,4.5-3.7
				c0-2.1-1.4-3.4-4.1-3.4c-1,0-1.7,0.1-2.1,0.2v6.8C-1778.7,935.4-1778.2,935.4-1777.4,935.4z M-1752.5,924.6v22.9h-5.2v-22.9
				H-1752.5z M-1748,947.5v-22.9h6l4.8,8.4c1.4,2.4,2.7,5.3,3.7,7.9l0.1,0c-0.3-3-0.4-6.1-0.4-9.6v-6.7h4.8v22.9h-5.4l-4.9-8.8
				c-1.4-2.5-2.9-5.4-4-8.1l-0.1,0c0.2,3,0.2,6.3,0.2,10v6.9H-1748z M-1719.3,924.6v22.9h-5.2v-22.9H-1719.3z M-1716.6,929v-4.4
				h17.6v4.4h-6.3v18.6h-5.2V929H-1716.6z M-1691,924.6v22.9h-5.2v-22.9H-1691z M-1681.2,941.6l-1.6,5.9h-5.4l7-22.9h6.8l7.1,22.9
				h-5.6l-1.8-5.9H-1681.2z M-1675.3,937.8l-1.4-4.9c-0.4-1.4-0.8-3.1-1.2-4.4h-0.1c-0.3,1.3-0.7,3.1-1,4.4l-1.4,4.9H-1675.3z
				 M-1665.9,929v-4.4h17.6v4.4h-6.3v18.6h-5.2V929H-1665.9z M-1640.3,924.6v22.9h-5.2v-22.9H-1640.3z M-1630.4,947.5l-7.4-22.9h5.7
				l2.8,9.7c0.8,2.7,1.5,5.3,2.1,8.2h0.1c0.6-2.8,1.3-5.5,2.1-8.1l2.9-9.8h5.5l-7.7,22.9H-1630.4z M-1600.6,937.8h-8.4v5.5h9.4v4.2
				h-14.6v-22.9h14.1v4.2h-8.9v4.8h8.4V937.8z"/>
			<g>
				<g>
					<path class="st14" d="M-2026.6,924.6h-6.8l-7,22.9h5.4l1.6-5.9h6.6l1.8,5.9h5.6L-2026.6,924.6z M-2032.6,937.8l1.4-4.9
						c0.4-1.3,0.7-3.1,1-4.4h0.1c0.4,1.3,0.8,3.1,1.2,4.4l1.4,4.9H-2032.6z"/>
				</g>
				<path class="st14" d="M-2015.5,947.5v-22.9h6l4.8,8.4c1.4,2.4,2.7,5.3,3.7,7.9l0.1,0c-0.3-3-0.4-6.1-0.4-9.6v-6.7h4.8v22.9h-5.4
					l-4.9-8.8c-1.4-2.5-2.9-5.4-4-8.1l-0.1,0c0.2,3,0.2,6.3,0.2,10v6.9H-2015.5z"/>
			</g>
		</g>
	</g>
	<g>
		<text transform="matrix(1 0 0 1 -1850.6636 738.7446)" class="st7" style="font-family:'Rota-Bold'; font-size:43.5082px;">/extraa.in</text>
		<g>
			<circle class="st15" cx="-2019.7" cy="723.8" r="17.2"/>
			<circle class="st15" cx="-2021.1" cy="730.4" r="17.2"/>
			<path class="st7" d="M-1886.4,700.7c-12.9,0-23.4,10.5-23.4,23.4c0,12.9,10.5,23.4,23.4,23.4c12.9,0,23.4-10.5,23.4-23.4
				C-1863,711.1-1873.5,700.7-1886.4,700.7z"/>
			<path class="st7" d="M-1953.8,700.7c-12.9,0-23.4,10.5-23.4,23.4c0,12.9,10.5,23.4,23.4,23.4c12.9,0,23.4-10.5,23.4-23.4
				C-1930.5,711.1-1940.9,700.7-1953.8,700.7z"/>
			<path class="st7" d="M-1997.9,724c0-12.9-10.5-23.4-23.4-23.4s-23.4,10.5-23.4,23.4c0,11.7,8.5,21.3,19.7,23.1v-16.3h-5.9V724
				h5.9v-5.1c0-5.9,3.5-9.1,8.8-9.1c2.6,0,5.2,0.5,5.2,0.5v5.8h-2.9c-2.9,0-3.8,1.8-3.8,3.7v4.4h6.5l-1,6.8h-5.4v16.3
				C-2006.5,745.4-1997.9,735.7-1997.9,724z"/>
			<path class="st15" d="M-1887.1,708.1c0.8,0,1.5,0,2.3,0c0.5,0.1,1,0.1,1.5,0.2c3,0.5,5.6,1.7,7.9,3.7c4.3,3.9,6.2,8.7,5.5,14.5
				c-0.5,4.3-2.6,7.8-6.1,10.5c-3.9,3.1-8.4,4.1-13.3,3.1c-3.1-0.6-5.8-2.1-8-4.3c-2.4-2.4-4-5.3-4.6-8.7c-0.1-0.6-0.2-1.1-0.3-1.7
				c0-0.8,0-1.5,0-2.3c0.1-0.5,0.1-1,0.2-1.5c0.6-3.3,2-6.2,4.4-8.6c2.4-2.5,5.4-4.1,8.8-4.7
				C-1888.2,708.2-1887.6,708.2-1887.1,708.1z M-1886.9,723.3c0-2.2,0-4.4,0-6.7c-1.4,0-2.9,0-4.3,0c-0.3,0-0.4,0.1-0.4,0.3
				c-0.4,1.5-0.7,3-0.8,4.5c-0.1,0.6-0.1,1.2-0.1,1.8c0.1,0,0.2,0,0.3,0C-1890.5,723.3-1888.7,723.3-1886.9,723.3z M-1892.5,725.3
				c0,2,0.4,4.5,0.9,6.4c0.1,0.2,0.1,0.3,0.4,0.3c1.4,0,2.7,0,4.1,0c0.1,0,0.2,0,0.3,0c0-2.2,0-4.4,0-6.6
				C-1888.8,725.3-1890.6,725.3-1892.5,725.3z M-1900.3,723.3c2,0,3.9,0,5.8,0c0.1-2.2,0.4-4.4,1-6.6c-0.1,0-0.1,0-0.1,0
				c-1.4,0-2.8,0-4.2,0c-0.1,0-0.2,0.1-0.3,0.2c-0.7,1.2-1.3,2.5-1.6,3.9C-1900,721.6-1900.1,722.5-1900.3,723.3z M-1879.3,723.3
				c-0.1-2.2-0.4-4.3-0.9-6.4c-0.1-0.2-0.2-0.3-0.4-0.3c-1.4,0-2.7,0-4.1,0c-0.1,0-0.2,0-0.3,0c0,2.2,0,4.4,0,6.6
				C-1883.1,723.3-1881.2,723.3-1879.3,723.3z M-1885,725.3c0,2.2,0,4.4,0,6.6c1.4,0,2.9,0,4.3,0c0.3,0,0.4-0.1,0.4-0.3
				c0.4-1.5,0.7-3,0.8-4.5c0.1-0.6,0.1-1.2,0.1-1.8C-1881.2,725.3-1883.1,725.3-1885,725.3z M-1871.7,723.3c0-0.1,0-0.2,0-0.3
				c0-0.2,0-0.3-0.1-0.5c-0.2-2-0.9-3.9-2-5.7c-0.1-0.2-0.2-0.2-0.4-0.2c-1.1,0-2.1,0-3.2,0c-0.3,0-0.7,0-1.1,0
				c0.6,2.2,0.9,4.4,1,6.6C-1875.5,723.3-1873.6,723.3-1871.7,723.3z M-1894.5,725.3c-1.9,0-3.8,0-5.7,0c0,0,0,0.1,0,0.1
				c0,0.1,0,0.2,0,0.3c0.2,2.2,0.9,4.2,2,6.1c0.1,0.1,0.2,0.2,0.3,0.2c1.3,0,2.7,0,4,0c0.1,0,0.2,0,0.3,0
				C-1894.1,729.7-1894.4,727.5-1894.5,725.3z M-1877.4,725.3c-0.1,2.3-0.4,4.5-1,6.6c0.1,0,0.1,0,0.2,0c1.4,0,2.8,0,4.2,0
				c0.1,0,0.3-0.1,0.3-0.2c0.8-1.4,1.4-2.8,1.7-4.4c0.1-0.7,0.2-1.3,0.3-2C-1873.6,725.3-1875.5,725.3-1877.4,725.3z M-1886.9,714.8
				c0-1.6,0-3.1,0-4.6c-1.4,0.3-3.7,3.2-3.9,4.6C-1889.5,714.8-1888.2,714.8-1886.9,714.8z M-1885,710.1c0,1.6,0,3.1,0,4.6
				c1.3,0,2.6,0,3.9,0C-1881.9,712.9-1882.9,711.1-1885,710.1z M-1886.9,738.5c0-1.6,0-3.1,0-4.6c-1.3,0-2.6,0-3.9,0
				C-1889.9,735.7-1889,737.5-1886.9,738.5z M-1881,733.8c-1.3,0-2.6,0-3.9,0c0,1.5,0,3.1,0,4.6
				C-1883.5,738-1881.8,735.9-1881,733.8z M-1875.2,714.8c-1.6-1.8-3.5-3.1-5.9-4c0.9,1.2,1.6,2.5,2.1,3.8c0.1,0.2,0.2,0.2,0.3,0.2
				c0.7,0,1.4,0,2.1,0C-1876.2,714.8-1875.7,714.8-1875.2,714.8z M-1881.1,737.8c2.3-0.9,4.2-2.1,5.8-4c-1.2,0-2.3,0-3.4,0
				c-0.3,0-0.4,0.1-0.5,0.3c-0.4,0.9-0.9,1.8-1.3,2.7C-1880.6,737.1-1880.8,737.4-1881.1,737.8z M-1890.8,710.9
				c-2.2,0.8-4.1,2.1-5.8,3.9c1.2,0,2.4,0,3.6,0c0.1,0,0.2-0.1,0.2-0.2c0.3-0.6,0.5-1.2,0.8-1.7
				C-1891.7,712.2-1891.2,711.5-1890.8,710.9z M-1890.8,737.7c-0.4-0.6-0.8-1.2-1.1-1.8c-0.3-0.6-0.6-1.3-0.9-1.9
				c-0.1-0.2-0.2-0.2-0.3-0.2c-1.1,0-2.1,0-3.2,0c-0.1,0-0.1,0-0.3,0C-1895,735.6-1893.1,736.9-1890.8,737.7z"/>
			<path class="st15" d="M-1938.5,718.2c0,4.3,0,8.6,0,12.9c0,0.3-0.1,0.7-0.1,1c-0.4,2.3-1.5,4.3-3.3,5.8c-1.7,1.4-3.7,2-5.9,2
				c-4.2,0-8.4,0-12.6-0.1c-1.4,0-2.8-0.4-4-1.1c-3.1-1.8-4.7-4.5-4.7-8.1c0-4,0-8.1,0-12.1c0-0.7,0.1-1.4,0.2-2
				c0.3-1.7,1.1-3.1,2.3-4.4c1.5-1.5,3.2-2.5,5.3-2.8c0.4-0.1,0.7-0.1,1.1-0.1c4.2,0,8.5,0,12.7,0c0.2,0,0.3,0.1,0.5,0.1
				c0.4,0.1,0.9,0.1,1.3,0.2c1.6,0.4,3.1,1.1,4.3,2.3c1.5,1.5,2.5,3.2,2.8,5.4C-1938.6,717.4-1938.5,717.8-1938.5,718.2z
				 M-1953.9,736.9c2,0,4.1,0,6.1,0c0.9,0,1.8-0.2,2.7-0.6c2.4-1.2,3.5-3.1,3.6-5.7c0-3.8,0-7.6,0-11.4c0-0.5,0-0.9,0-1.4
				c-0.2-2-1.1-3.5-2.8-4.6c-1-0.7-2.2-1-3.5-1c-3.8,0-7.6,0-11.5,0c-0.4,0-0.9,0-1.3,0.1c-1.8,0.2-3.2,0.9-4.3,2.3
				c-0.9,1.1-1.3,2.4-1.3,3.9c0,2.3,0,4.5,0,6.8c0,2,0,4,0.1,6c0.1,1.5,0.7,2.8,1.8,3.9c1.2,1.2,2.7,1.7,4.3,1.7
				C-1957.9,736.9-1955.9,736.9-1953.9,736.9z"/>
			<path class="st15" d="M-1945.9,724.5c0,4.4-3.5,7.9-7.9,7.9c-4.4,0-7.9-3.5-7.9-7.9c0-4.4,3.5-7.9,7.9-7.9
				C-1949.5,716.6-1945.9,720.2-1945.9,724.5z M-1949,724.5c0-2.7-2.2-4.9-4.9-4.9c-2.7,0-4.9,2.2-4.9,4.9c0,2.7,2.2,4.9,4.9,4.9
				C-1951.2,729.4-1949,727.2-1949,724.5z"/>
			<path class="st15" d="M-1944,716.6c0,1-0.8,1.9-1.9,1.9c-0.9,0-1.9-0.7-1.9-1.9c0-1.1,0.8-1.8,1.9-1.9
				C-1944.9,714.7-1944,715.6-1944,716.6z"/>
		</g>
	</g>
</g>
<g>
	<defs>
		<rect id="SVGID_1_" x="-2819.4" y="-15.8" width="1919.3" height="1081.2"/>
	</defs>
	<clipPath id="SVGID_2_">
		<use xlink:href="#SVGID_1_"  style="overflow:visible;"/>
	</clipPath>
	<g class="st16">
		<circle class="st1" cx="-1052.2" cy="122.3" r="294.8"/>
		<circle class="st7" cx="-1267.6" cy="375.1" r="132.6"/>
		<circle class="st17" cx="-2675.4" cy="931.7" r="277.5"/>
	</g>
</g>
</svg>
